<svg xmlns="http://www.w3.org/2000/svg" width="1200" height="630" viewBox="0 0 1200 630">
  <defs>
    <linearGradient id="blue" x1="0" y1="0" x2="1" y2="1">
      <stop offset="0" stop-color="#4d92ff" />
      <stop offset="1" stop-color="#176fff" />
    </linearGradient>
  </defs>
  <rect width="1200" height="630" fill="#0e0e10" />
  <path d="M1055 24h145v360c-30-12-60-18-91-18-20 0-38 2-54 7V24Z" fill="#4d92ff" opacity=".08" />
  <circle cx="92" cy="86" r="34" fill="url(#blue)" />
  <path d="M73 73h14v17H76v14H64V88c0-9 3-15 9-15Zm28 0h14v17h-11v14H92V88c0-9 3-15 9-15Z" fill="#fff" />
  <text x="146" y="101" fill="#fafafa" font-family="Arial" font-size="43" font-weight="700">QuoteCue</text>
  <text x="64" y="259" fill="#fafafa" font-family="Arial" font-size="75" font-weight="700" letter-spacing="-2">Annotate the answer.</text>
  <rect x="58" y="285" width="738" height="92" rx="8" fill="#4d92ff" opacity=".25" />
  <text x="64" y="357" fill="#fafafa" font-family="Arial" font-size="75" font-weight="700" letter-spacing="-2">Ask the right follow-up.</text>
  <text x="64" y="480" fill="#a3a3a3" font-family="Arial" font-size="28">Chrome / Edge · ChatGPT · Claude · DeepSeek · Kimi</text>
  <text x="64" y="552" fill="#4d92ff" font-family="Courier New" font-size="24">quotecue.xingkaixin.me</text>
</svg>
